<mxfile host="app.diagrams.net" modified="2021-12-22T02:25:01.621Z" agent="5.0 (Windows NT 10.0; Win64; x64) AppleWebKit/537.36 (KHTML, like Gecko) Chrome/96.0.4664.110 Safari/537.36" etag="Hz7ir82hCUrDdQcPCH55" version="16.0.0" type="github">
  <diagram id="1vwMO78F63A42fUgwjm2" name="Page-1">
    <mxGraphModel dx="865" dy="488" grid="1" gridSize="10" guides="1" tooltips="1" connect="1" arrows="1" fold="1" page="1" pageScale="1" pageWidth="827" pageHeight="1169" math="0" shadow="0">
      <root>
        <mxCell id="0" />
        <mxCell id="1" parent="0" />
        <mxCell id="z27-uRXxiAsdTS0FbLUc-89" value="" style="rounded=0;whiteSpace=wrap;html=1;sketch=0;fontSize=18;dashed=1;strokeWidth=2;fillColor=#F0F3F5;strokeColor=#007FFF;fontColor=#333333;" vertex="1" parent="1">
          <mxGeometry x="400" y="230" width="400" height="320" as="geometry" />
        </mxCell>
        <mxCell id="z27-uRXxiAsdTS0FbLUc-144" value="" style="rounded=1;whiteSpace=wrap;html=1;sketch=0;fontSize=12;fontColor=#000000;strokeColor=#000000;strokeWidth=1;fillColor=#FFFFFF;" vertex="1" parent="1">
          <mxGeometry x="450" y="390" width="300" height="110" as="geometry" />
        </mxCell>
        <mxCell id="z27-uRXxiAsdTS0FbLUc-78" value="" style="rounded=0;whiteSpace=wrap;html=1;sketch=0;fontSize=18;dashed=1;strokeWidth=2;fillColor=#F5F4F0;strokeColor=#FF8000;fontColor=#333333;" vertex="1" parent="1">
          <mxGeometry x="30" y="230" width="340" height="330" as="geometry" />
        </mxCell>
        <mxCell id="z27-uRXxiAsdTS0FbLUc-1" value="&lt;p style=&quot;margin-top: 0pt ; margin-bottom: 0pt ; margin-left: 0in ; text-align: left ; direction: ltr ; unicode-bidi: embed ; word-break: normal ; font-size: 14px&quot;&gt;&lt;span style=&quot;font-family: &amp;#34;times new roman&amp;#34;&quot;&gt;X&lt;/span&gt;&lt;span&gt;债&amp;nbsp; &lt;/span&gt;&lt;span style=&quot;font-family: &amp;#34;times new roman&amp;#34;&quot;&gt;3.5%&amp;nbsp; 0.3e&amp;nbsp; A&lt;/span&gt;&lt;span&gt;基金&amp;nbsp; 买入 请求&amp;nbsp; &lt;/span&gt;&lt;span style=&quot;font-family: &amp;#34;times new roman&amp;#34;&quot;&gt;B&lt;/span&gt;&lt;span&gt;机构&lt;/span&gt;&lt;/p&gt;" style="rounded=0;whiteSpace=wrap;html=1;" vertex="1" parent="1">
          <mxGeometry x="39" y="570" width="321" height="30" as="geometry" />
        </mxCell>
        <mxCell id="z27-uRXxiAsdTS0FbLUc-5" value="Input Embedding" style="rounded=1;whiteSpace=wrap;html=1;fontSize=14;strokeWidth=1;" vertex="1" parent="1">
          <mxGeometry x="40" y="510" width="320" height="30" as="geometry" />
        </mxCell>
        <mxCell id="z27-uRXxiAsdTS0FbLUc-21" value="" style="shape=singleArrow;direction=north;whiteSpace=wrap;html=1;fontSize=14;strokeWidth=1;" vertex="1" parent="1">
          <mxGeometry x="93.5" y="540" width="10" height="30" as="geometry" />
        </mxCell>
        <mxCell id="z27-uRXxiAsdTS0FbLUc-30" value="" style="shape=singleArrow;direction=north;whiteSpace=wrap;html=1;fontSize=14;strokeWidth=1;" vertex="1" parent="1">
          <mxGeometry x="123.5" y="540" width="10" height="30" as="geometry" />
        </mxCell>
        <mxCell id="z27-uRXxiAsdTS0FbLUc-31" value="" style="shape=singleArrow;direction=north;whiteSpace=wrap;html=1;fontSize=14;strokeWidth=1;" vertex="1" parent="1">
          <mxGeometry x="153.5" y="540" width="10" height="30" as="geometry" />
        </mxCell>
        <mxCell id="z27-uRXxiAsdTS0FbLUc-32" value="" style="shape=singleArrow;direction=north;whiteSpace=wrap;html=1;fontSize=14;strokeWidth=1;" vertex="1" parent="1">
          <mxGeometry x="193.5" y="540" width="10" height="30" as="geometry" />
        </mxCell>
        <mxCell id="z27-uRXxiAsdTS0FbLUc-34" value="" style="shape=singleArrow;direction=north;whiteSpace=wrap;html=1;fontSize=14;strokeWidth=1;" vertex="1" parent="1">
          <mxGeometry x="233.5" y="540" width="10" height="30" as="geometry" />
        </mxCell>
        <mxCell id="z27-uRXxiAsdTS0FbLUc-35" value="" style="shape=singleArrow;direction=north;whiteSpace=wrap;html=1;fontSize=14;strokeWidth=1;" vertex="1" parent="1">
          <mxGeometry x="263.5" y="540" width="10" height="30" as="geometry" />
        </mxCell>
        <mxCell id="z27-uRXxiAsdTS0FbLUc-36" value="" style="shape=singleArrow;direction=north;whiteSpace=wrap;html=1;fontSize=14;strokeWidth=1;" vertex="1" parent="1">
          <mxGeometry x="303.5" y="540" width="10" height="30" as="geometry" />
        </mxCell>
        <mxCell id="z27-uRXxiAsdTS0FbLUc-37" value="Multi-head Self Attention" style="rounded=1;whiteSpace=wrap;html=1;fontSize=14;strokeWidth=1;" vertex="1" parent="1">
          <mxGeometry x="113.5" y="420" width="170" height="60" as="geometry" />
        </mxCell>
        <mxCell id="z27-uRXxiAsdTS0FbLUc-47" style="edgeStyle=none;shape=flexArrow;rounded=0;orthogonalLoop=1;jettySize=auto;html=1;exitX=0.5;exitY=0;exitDx=0;exitDy=0;fontSize=14;" edge="1" parent="1" source="z27-uRXxiAsdTS0FbLUc-37" target="z27-uRXxiAsdTS0FbLUc-37">
          <mxGeometry relative="1" as="geometry" />
        </mxCell>
        <mxCell id="z27-uRXxiAsdTS0FbLUc-48" value="Add &amp;amp; Norm" style="rounded=1;whiteSpace=wrap;html=1;fontSize=14;strokeWidth=1;" vertex="1" parent="1">
          <mxGeometry x="113.5" y="380" width="170" height="30" as="geometry" />
        </mxCell>
        <mxCell id="z27-uRXxiAsdTS0FbLUc-57" value="" style="edgeStyle=elbowEdgeStyle;elbow=horizontal;endArrow=classic;html=1;rounded=0;fontSize=14;exitX=0;exitY=0;exitDx=12;exitDy=3.5;exitPerimeter=0;" edge="1" parent="1">
          <mxGeometry width="50" height="50" relative="1" as="geometry">
            <mxPoint x="197.00000000000023" y="497.9999999999999" as="sourcePoint" />
            <mxPoint x="117" y="390" as="targetPoint" />
            <Array as="points">
              <mxPoint x="60" y="410" />
              <mxPoint x="90" y="390" />
              <mxPoint x="70" y="410" />
              <mxPoint x="90" y="400" />
              <mxPoint x="93.5" y="420" />
            </Array>
          </mxGeometry>
        </mxCell>
        <mxCell id="z27-uRXxiAsdTS0FbLUc-61" value="" style="endArrow=classic;html=1;rounded=0;fontSize=14;" edge="1" parent="1">
          <mxGeometry width="50" height="50" relative="1" as="geometry">
            <mxPoint x="198" y="510" as="sourcePoint" />
            <mxPoint x="198" y="465" as="targetPoint" />
          </mxGeometry>
        </mxCell>
        <mxCell id="z27-uRXxiAsdTS0FbLUc-62" value="" style="edgeStyle=segmentEdgeStyle;endArrow=classic;html=1;rounded=0;fontSize=14;endSize=6;" edge="1" parent="1">
          <mxGeometry width="50" height="50" relative="1" as="geometry">
            <mxPoint x="196.75" y="490" as="sourcePoint" />
            <mxPoint x="217.25" y="470" as="targetPoint" />
          </mxGeometry>
        </mxCell>
        <mxCell id="z27-uRXxiAsdTS0FbLUc-63" value="" style="edgeStyle=segmentEdgeStyle;endArrow=classic;html=1;rounded=0;fontSize=14;endSize=6;" edge="1" parent="1">
          <mxGeometry width="50" height="50" relative="1" as="geometry">
            <mxPoint x="203.5" y="490" as="sourcePoint" />
            <mxPoint x="183.5" y="470" as="targetPoint" />
          </mxGeometry>
        </mxCell>
        <mxCell id="z27-uRXxiAsdTS0FbLUc-65" value="" style="endArrow=classic;html=1;rounded=0;fontSize=14;endSize=6;targetPerimeterSpacing=10;sourcePerimeterSpacing=10;jumpStyle=sharp;jumpSize=16;" edge="1" parent="1">
          <mxGeometry width="50" height="50" relative="1" as="geometry">
            <mxPoint x="202" y="418" as="sourcePoint" />
            <mxPoint x="202" y="401" as="targetPoint" />
            <Array as="points" />
          </mxGeometry>
        </mxCell>
        <mxCell id="z27-uRXxiAsdTS0FbLUc-66" value="Feed Forward" style="rounded=1;whiteSpace=wrap;html=1;fontSize=14;strokeWidth=1;" vertex="1" parent="1">
          <mxGeometry x="113.5" y="290" width="170" height="60" as="geometry" />
        </mxCell>
        <mxCell id="z27-uRXxiAsdTS0FbLUc-67" value="" style="endArrow=classic;html=1;rounded=0;fontSize=14;" edge="1" parent="1">
          <mxGeometry width="50" height="50" relative="1" as="geometry">
            <mxPoint x="198.08" y="380" as="sourcePoint" />
            <mxPoint x="198.08" y="335" as="targetPoint" />
          </mxGeometry>
        </mxCell>
        <mxCell id="z27-uRXxiAsdTS0FbLUc-68" value="Add &amp;amp; Norm" style="rounded=1;whiteSpace=wrap;html=1;fontSize=14;strokeWidth=1;" vertex="1" parent="1">
          <mxGeometry x="113.5" y="250" width="170" height="30" as="geometry" />
        </mxCell>
        <mxCell id="z27-uRXxiAsdTS0FbLUc-72" value="" style="endArrow=classic;html=1;rounded=0;fontSize=14;endSize=6;sourcePerimeterSpacing=10;targetPerimeterSpacing=10;elbow=vertical;jumpStyle=sharp;jumpSize=16;" edge="1" parent="1">
          <mxGeometry width="50" height="50" relative="1" as="geometry">
            <mxPoint x="198.08" y="290" as="sourcePoint" />
            <mxPoint x="198.16000000000003" y="270" as="targetPoint" />
          </mxGeometry>
        </mxCell>
        <mxCell id="z27-uRXxiAsdTS0FbLUc-73" value="" style="edgeStyle=elbowEdgeStyle;elbow=horizontal;endArrow=classic;html=1;rounded=0;fontSize=14;exitX=0;exitY=0;exitDx=12;exitDy=3.5;exitPerimeter=0;" edge="1" parent="1">
          <mxGeometry width="50" height="50" relative="1" as="geometry">
            <mxPoint x="197.00000000000023" y="367.9999999999999" as="sourcePoint" />
            <mxPoint x="116.99999999999989" y="260" as="targetPoint" />
            <Array as="points">
              <mxPoint x="60" y="280" />
              <mxPoint x="90" y="260" />
              <mxPoint x="70" y="280" />
              <mxPoint x="90" y="270" />
              <mxPoint x="93.5" y="290" />
            </Array>
          </mxGeometry>
        </mxCell>
        <mxCell id="z27-uRXxiAsdTS0FbLUc-74" value="" style="shape=curlyBracket;whiteSpace=wrap;html=1;rounded=1;flipH=1;fontSize=14;strokeWidth=1;" vertex="1" parent="1">
          <mxGeometry x="290" y="260" width="20" height="220" as="geometry" />
        </mxCell>
        <mxCell id="z27-uRXxiAsdTS0FbLUc-76" value="x 12" style="text;html=1;resizable=0;autosize=1;align=center;verticalAlign=middle;points=[];fillColor=none;strokeColor=none;rounded=0;sketch=0;" vertex="1" parent="1">
          <mxGeometry x="305" y="360" width="40" height="20" as="geometry" />
        </mxCell>
        <mxCell id="z27-uRXxiAsdTS0FbLUc-77" value="&lt;font style=&quot;font-size: 18px&quot; color=&quot;#ff8000&quot;&gt;WBERT&lt;/font&gt;" style="text;html=1;resizable=0;autosize=1;align=center;verticalAlign=middle;points=[];fillColor=none;strokeColor=none;rounded=0;sketch=0;rotation=90;" vertex="1" parent="1">
          <mxGeometry x="285" y="430" width="80" height="20" as="geometry" />
        </mxCell>
        <mxCell id="z27-uRXxiAsdTS0FbLUc-79" value="&lt;font color=&quot;#009999&quot;&gt;Spacy句法解析&lt;/font&gt;" style="rounded=0;whiteSpace=wrap;html=1;dashed=1;sketch=0;fontSize=18;fontColor=#FF8000;strokeColor=#000000;strokeWidth=2;fillColor=#FFFFFF;" vertex="1" parent="1">
          <mxGeometry x="400" y="570" width="400" height="30" as="geometry" />
        </mxCell>
        <mxCell id="z27-uRXxiAsdTS0FbLUc-81" value="" style="endArrow=classic;html=1;rounded=1;sketch=0;fontSize=18;fontColor=#FF8000;curved=0;" edge="1" parent="1">
          <mxGeometry width="50" height="50" relative="1" as="geometry">
            <mxPoint x="360" y="585" as="sourcePoint" />
            <mxPoint x="400" y="584.58" as="targetPoint" />
            <Array as="points">
              <mxPoint x="400" y="585" />
            </Array>
          </mxGeometry>
        </mxCell>
        <mxCell id="z27-uRXxiAsdTS0FbLUc-90" value="Dependency Embedding" style="rounded=1;whiteSpace=wrap;html=1;fontSize=14;strokeWidth=1;" vertex="1" parent="1">
          <mxGeometry x="445" y="510" width="320" height="30" as="geometry" />
        </mxCell>
        <mxCell id="z27-uRXxiAsdTS0FbLUc-82" value="" style="endArrow=classic;html=1;rounded=1;sketch=0;fontSize=18;fontColor=#009999;curved=0;" edge="1" parent="1">
          <mxGeometry width="50" height="50" relative="1" as="geometry">
            <mxPoint x="605" y="567.5" as="sourcePoint" />
            <mxPoint x="604.58" y="537.5" as="targetPoint" />
          </mxGeometry>
        </mxCell>
        <mxCell id="z27-uRXxiAsdTS0FbLUc-85" value="&lt;font color=&quot;#000000&quot;&gt;A&lt;/font&gt;" style="rounded=1;whiteSpace=wrap;html=1;sketch=0;fontSize=18;fontColor=#009999;strokeColor=#000000;strokeWidth=1;fillColor=#FFFFFF;" vertex="1" parent="1">
          <mxGeometry x="620" y="542.5" width="30" height="25" as="geometry" />
        </mxCell>
        <mxCell id="z27-uRXxiAsdTS0FbLUc-88" value="&lt;font color=&quot;#000000&quot;&gt;tag&lt;/font&gt;" style="rounded=1;whiteSpace=wrap;html=1;sketch=0;fontSize=18;fontColor=#009999;strokeColor=#000000;strokeWidth=1;fillColor=#FFFFFF;" vertex="1" parent="1">
          <mxGeometry x="560" y="542.5" width="30" height="25" as="geometry" />
        </mxCell>
        <mxCell id="z27-uRXxiAsdTS0FbLUc-92" value="" style="shape=singleArrow;direction=north;whiteSpace=wrap;html=1;fontSize=14;strokeWidth=1;" vertex="1" parent="1">
          <mxGeometry x="490" y="480" width="10" height="30" as="geometry" />
        </mxCell>
        <mxCell id="z27-uRXxiAsdTS0FbLUc-100" value="" style="shape=singleArrow;direction=north;whiteSpace=wrap;html=1;fontSize=14;strokeWidth=1;" vertex="1" parent="1">
          <mxGeometry x="600" y="480" width="10" height="30" as="geometry" />
        </mxCell>
        <mxCell id="z27-uRXxiAsdTS0FbLUc-101" value="" style="shape=singleArrow;direction=north;whiteSpace=wrap;html=1;fontSize=14;strokeWidth=1;" vertex="1" parent="1">
          <mxGeometry x="710" y="480" width="10" height="30" as="geometry" />
        </mxCell>
        <mxCell id="z27-uRXxiAsdTS0FbLUc-102" value="" style="ellipse;whiteSpace=wrap;html=1;aspect=fixed;rounded=0;sketch=0;fontSize=18;fontColor=#000000;strokeColor=#000000;strokeWidth=1;fillColor=#FFFFFF;" vertex="1" parent="1">
          <mxGeometry x="470" y="460" width="10" height="10" as="geometry" />
        </mxCell>
        <mxCell id="z27-uRXxiAsdTS0FbLUc-103" value="" style="ellipse;whiteSpace=wrap;html=1;aspect=fixed;rounded=0;sketch=0;fontSize=18;fontColor=#000000;strokeColor=#000000;strokeWidth=1;fillColor=#FFFFFF;" vertex="1" parent="1">
          <mxGeometry x="490" y="460" width="10" height="10" as="geometry" />
        </mxCell>
        <mxCell id="z27-uRXxiAsdTS0FbLUc-105" value="" style="ellipse;whiteSpace=wrap;html=1;aspect=fixed;rounded=0;sketch=0;fontSize=18;fontColor=#000000;strokeColor=#000000;strokeWidth=1;fillColor=#FFFFFF;" vertex="1" parent="1">
          <mxGeometry x="510" y="460" width="10" height="10" as="geometry" />
        </mxCell>
        <mxCell id="z27-uRXxiAsdTS0FbLUc-106" value="" style="ellipse;whiteSpace=wrap;html=1;aspect=fixed;rounded=0;sketch=0;fontSize=18;fontColor=#000000;strokeColor=#000000;strokeWidth=1;fillColor=#FFFFFF;" vertex="1" parent="1">
          <mxGeometry x="600" y="460" width="10" height="10" as="geometry" />
        </mxCell>
        <mxCell id="z27-uRXxiAsdTS0FbLUc-107" value="" style="ellipse;whiteSpace=wrap;html=1;aspect=fixed;rounded=0;sketch=0;fontSize=18;fontColor=#000000;strokeColor=#000000;strokeWidth=1;fillColor=#FFFFFF;" vertex="1" parent="1">
          <mxGeometry x="710" y="460" width="10" height="10" as="geometry" />
        </mxCell>
        <mxCell id="z27-uRXxiAsdTS0FbLUc-108" value="" style="ellipse;whiteSpace=wrap;html=1;aspect=fixed;rounded=0;sketch=0;fontSize=18;fontColor=#000000;strokeColor=#000000;strokeWidth=1;fillColor=#FFFFFF;" vertex="1" parent="1">
          <mxGeometry x="620" y="460" width="10" height="10" as="geometry" />
        </mxCell>
        <mxCell id="z27-uRXxiAsdTS0FbLUc-109" value="" style="ellipse;whiteSpace=wrap;html=1;aspect=fixed;rounded=0;sketch=0;fontSize=18;fontColor=#000000;strokeColor=#000000;strokeWidth=1;fillColor=#FFFFFF;" vertex="1" parent="1">
          <mxGeometry x="580" y="460" width="10" height="10" as="geometry" />
        </mxCell>
        <mxCell id="z27-uRXxiAsdTS0FbLUc-110" value="" style="ellipse;whiteSpace=wrap;html=1;aspect=fixed;rounded=0;sketch=0;fontSize=18;fontColor=#000000;strokeColor=#000000;strokeWidth=1;fillColor=#FFFFFF;" vertex="1" parent="1">
          <mxGeometry x="690" y="460" width="10" height="10" as="geometry" />
        </mxCell>
        <mxCell id="z27-uRXxiAsdTS0FbLUc-111" value="" style="ellipse;whiteSpace=wrap;html=1;aspect=fixed;rounded=0;sketch=0;fontSize=18;fontColor=#000000;strokeColor=#000000;strokeWidth=1;fillColor=#FFFFFF;" vertex="1" parent="1">
          <mxGeometry x="730" y="460" width="10" height="10" as="geometry" />
        </mxCell>
        <mxCell id="z27-uRXxiAsdTS0FbLUc-112" value="" style="ellipse;whiteSpace=wrap;html=1;aspect=fixed;rounded=0;sketch=0;fontSize=18;fontColor=#000000;strokeColor=#000000;strokeWidth=1;fillColor=#FFFFFF;" vertex="1" parent="1">
          <mxGeometry x="470" y="410" width="10" height="10" as="geometry" />
        </mxCell>
        <mxCell id="z27-uRXxiAsdTS0FbLUc-115" value="" style="endArrow=classic;html=1;rounded=1;sketch=0;fontSize=18;fontColor=#000000;curved=0;endSize=2;" edge="1" parent="1">
          <mxGeometry width="50" height="50" relative="1" as="geometry">
            <mxPoint x="474.58" y="460" as="sourcePoint" />
            <mxPoint x="474.58" y="420" as="targetPoint" />
          </mxGeometry>
        </mxCell>
        <mxCell id="z27-uRXxiAsdTS0FbLUc-116" value="" style="endArrow=classic;html=1;rounded=1;sketch=0;fontSize=18;fontColor=#000000;curved=0;endSize=2;entryX=0.5;entryY=1;entryDx=0;entryDy=0;" edge="1" parent="1" target="z27-uRXxiAsdTS0FbLUc-112">
          <mxGeometry width="50" height="50" relative="1" as="geometry">
            <mxPoint x="490" y="460" as="sourcePoint" />
            <mxPoint x="480" y="420" as="targetPoint" />
          </mxGeometry>
        </mxCell>
        <mxCell id="z27-uRXxiAsdTS0FbLUc-118" value="" style="endArrow=classic;html=1;rounded=1;sketch=0;fontSize=18;fontColor=#000000;curved=0;entryX=1;entryY=1;entryDx=0;entryDy=0;endSize=2;" edge="1" parent="1" target="z27-uRXxiAsdTS0FbLUc-112">
          <mxGeometry width="50" height="50" relative="1" as="geometry">
            <mxPoint x="510" y="460" as="sourcePoint" />
            <mxPoint x="500" y="420" as="targetPoint" />
          </mxGeometry>
        </mxCell>
        <mxCell id="z27-uRXxiAsdTS0FbLUc-120" value="" style="ellipse;whiteSpace=wrap;html=1;aspect=fixed;rounded=0;sketch=0;fontSize=18;fontColor=#000000;strokeColor=#000000;strokeWidth=1;fillColor=#FFFFFF;" vertex="1" parent="1">
          <mxGeometry x="490" y="410" width="10" height="10" as="geometry" />
        </mxCell>
        <mxCell id="z27-uRXxiAsdTS0FbLUc-121" value="" style="ellipse;whiteSpace=wrap;html=1;aspect=fixed;rounded=0;sketch=0;fontSize=18;fontColor=#000000;strokeColor=#000000;strokeWidth=1;fillColor=#FFFFFF;" vertex="1" parent="1">
          <mxGeometry x="510" y="410" width="10" height="10" as="geometry" />
        </mxCell>
        <mxCell id="z27-uRXxiAsdTS0FbLUc-122" value="&lt;font style=&quot;font-size: 12px&quot;&gt;a11&lt;/font&gt;" style="text;html=1;resizable=0;autosize=1;align=center;verticalAlign=middle;points=[];fillColor=none;strokeColor=none;rounded=0;sketch=0;fontSize=18;fontColor=#000000;" vertex="1" parent="1">
          <mxGeometry x="450" y="425" width="30" height="30" as="geometry" />
        </mxCell>
        <mxCell id="z27-uRXxiAsdTS0FbLUc-124" value="&lt;font style=&quot;font-size: 12px&quot;&gt;a13&lt;/font&gt;" style="text;html=1;resizable=0;autosize=1;align=center;verticalAlign=middle;points=[];fillColor=none;strokeColor=none;rounded=0;sketch=0;fontSize=18;fontColor=#000000;" vertex="1" parent="1">
          <mxGeometry x="495" y="425" width="40" height="30" as="geometry" />
        </mxCell>
        <mxCell id="z27-uRXxiAsdTS0FbLUc-125" value="" style="ellipse;whiteSpace=wrap;html=1;aspect=fixed;rounded=0;sketch=0;fontSize=18;fontColor=#000000;strokeColor=#000000;strokeWidth=1;fillColor=#FFFFFF;" vertex="1" parent="1">
          <mxGeometry x="580" y="410" width="10" height="10" as="geometry" />
        </mxCell>
        <mxCell id="z27-uRXxiAsdTS0FbLUc-126" value="" style="ellipse;whiteSpace=wrap;html=1;aspect=fixed;rounded=0;sketch=0;fontSize=18;fontColor=#000000;strokeColor=#000000;strokeWidth=1;fillColor=#FFFFFF;" vertex="1" parent="1">
          <mxGeometry x="600" y="410" width="10" height="10" as="geometry" />
        </mxCell>
        <mxCell id="z27-uRXxiAsdTS0FbLUc-127" value="" style="ellipse;whiteSpace=wrap;html=1;aspect=fixed;rounded=0;sketch=0;fontSize=18;fontColor=#000000;strokeColor=#000000;strokeWidth=1;fillColor=#FFFFFF;" vertex="1" parent="1">
          <mxGeometry x="620" y="410" width="10" height="10" as="geometry" />
        </mxCell>
        <mxCell id="z27-uRXxiAsdTS0FbLUc-128" value="" style="ellipse;whiteSpace=wrap;html=1;aspect=fixed;rounded=0;sketch=0;fontSize=18;fontColor=#000000;strokeColor=#000000;strokeWidth=1;fillColor=#FFFFFF;" vertex="1" parent="1">
          <mxGeometry x="690" y="410" width="10" height="10" as="geometry" />
        </mxCell>
        <mxCell id="z27-uRXxiAsdTS0FbLUc-129" value="" style="ellipse;whiteSpace=wrap;html=1;aspect=fixed;rounded=0;sketch=0;fontSize=18;fontColor=#000000;strokeColor=#000000;strokeWidth=1;fillColor=#FFFFFF;" vertex="1" parent="1">
          <mxGeometry x="710" y="410" width="10" height="10" as="geometry" />
        </mxCell>
        <mxCell id="z27-uRXxiAsdTS0FbLUc-130" value="" style="ellipse;whiteSpace=wrap;html=1;aspect=fixed;rounded=0;sketch=0;fontSize=18;fontColor=#000000;strokeColor=#000000;strokeWidth=1;fillColor=#FFFFFF;" vertex="1" parent="1">
          <mxGeometry x="730" y="410" width="10" height="10" as="geometry" />
        </mxCell>
        <mxCell id="z27-uRXxiAsdTS0FbLUc-131" value="" style="endArrow=classic;html=1;rounded=1;sketch=0;fontSize=12;fontColor=#000000;elbow=vertical;endSize=2;" edge="1" parent="1">
          <mxGeometry width="50" height="50" relative="1" as="geometry">
            <mxPoint x="604.58" y="460" as="sourcePoint" />
            <mxPoint x="604.58" y="420" as="targetPoint" />
          </mxGeometry>
        </mxCell>
        <mxCell id="z27-uRXxiAsdTS0FbLUc-133" value="" style="endArrow=classic;html=1;rounded=1;sketch=0;fontSize=12;fontColor=#000000;elbow=vertical;exitX=0.5;exitY=0;exitDx=0;exitDy=0;endSize=2;" edge="1" parent="1" source="z27-uRXxiAsdTS0FbLUc-108">
          <mxGeometry width="50" height="50" relative="1" as="geometry">
            <mxPoint x="630" y="480" as="sourcePoint" />
            <mxPoint x="610" y="420" as="targetPoint" />
          </mxGeometry>
        </mxCell>
        <mxCell id="z27-uRXxiAsdTS0FbLUc-134" value="" style="endArrow=classic;html=1;rounded=1;sketch=0;fontSize=12;fontColor=#000000;elbow=vertical;exitX=0;exitY=0;exitDx=0;exitDy=0;endSize=2;" edge="1" parent="1" source="z27-uRXxiAsdTS0FbLUc-109">
          <mxGeometry width="50" height="50" relative="1" as="geometry">
            <mxPoint x="580" y="455" as="sourcePoint" />
            <mxPoint x="600" y="419.5" as="targetPoint" />
          </mxGeometry>
        </mxCell>
        <mxCell id="z27-uRXxiAsdTS0FbLUc-135" value="&lt;font style=&quot;font-size: 12px&quot;&gt;a54&lt;/font&gt;" style="text;html=1;resizable=0;autosize=1;align=center;verticalAlign=middle;points=[];fillColor=none;strokeColor=none;rounded=0;sketch=0;fontSize=18;fontColor=#000000;" vertex="1" parent="1">
          <mxGeometry x="555" y="430" width="40" height="30" as="geometry" />
        </mxCell>
        <mxCell id="z27-uRXxiAsdTS0FbLUc-136" value="&lt;font style=&quot;font-size: 12px&quot;&gt;a56&lt;/font&gt;" style="text;html=1;resizable=0;autosize=1;align=center;verticalAlign=middle;points=[];fillColor=none;strokeColor=none;rounded=0;sketch=0;fontSize=18;fontColor=#000000;" vertex="1" parent="1">
          <mxGeometry x="615" y="430" width="40" height="30" as="geometry" />
        </mxCell>
        <mxCell id="z27-uRXxiAsdTS0FbLUc-137" value="" style="endArrow=classic;html=1;rounded=1;sketch=0;fontSize=12;fontColor=#000000;elbow=vertical;exitX=0;exitY=0;exitDx=0;exitDy=0;endSize=2;" edge="1" parent="1" source="z27-uRXxiAsdTS0FbLUc-111">
          <mxGeometry width="50" height="50" relative="1" as="geometry">
            <mxPoint x="720" y="455" as="sourcePoint" />
            <mxPoint x="700" y="415" as="targetPoint" />
          </mxGeometry>
        </mxCell>
        <mxCell id="z27-uRXxiAsdTS0FbLUc-138" value="" style="endArrow=classicThin;html=1;rounded=1;sketch=0;fontSize=12;fontColor=#000000;elbow=vertical;exitX=0.5;exitY=0;exitDx=0;exitDy=0;endFill=1;endSize=2;entryX=1;entryY=1;entryDx=0;entryDy=0;" edge="1" parent="1" source="z27-uRXxiAsdTS0FbLUc-107" target="z27-uRXxiAsdTS0FbLUc-128">
          <mxGeometry width="50" height="50" relative="1" as="geometry">
            <mxPoint x="710" y="460" as="sourcePoint" />
            <mxPoint x="700" y="415" as="targetPoint" />
          </mxGeometry>
        </mxCell>
        <mxCell id="z27-uRXxiAsdTS0FbLUc-139" value="" style="endArrow=classic;html=1;rounded=1;sketch=0;fontSize=12;fontColor=#000000;elbow=vertical;exitX=0.5;exitY=0;exitDx=0;exitDy=0;endSize=2;" edge="1" parent="1" source="z27-uRXxiAsdTS0FbLUc-110">
          <mxGeometry width="50" height="50" relative="1" as="geometry">
            <mxPoint x="694.5799999999999" y="455" as="sourcePoint" />
            <mxPoint x="694.5799999999999" y="415" as="targetPoint" />
          </mxGeometry>
        </mxCell>
        <mxCell id="z27-uRXxiAsdTS0FbLUc-141" value="&lt;font style=&quot;font-size: 12px&quot;&gt;a79&lt;/font&gt;" style="text;html=1;resizable=0;autosize=1;align=center;verticalAlign=middle;points=[];fillColor=none;strokeColor=none;rounded=0;sketch=0;fontSize=18;fontColor=#000000;" vertex="1" parent="1">
          <mxGeometry x="715" y="430" width="40" height="30" as="geometry" />
        </mxCell>
        <mxCell id="z27-uRXxiAsdTS0FbLUc-145" value="" style="rounded=1;whiteSpace=wrap;html=1;sketch=0;fontSize=12;fontColor=#000000;strokeColor=#000000;strokeWidth=1;fillColor=#FFFFFF;" vertex="1" parent="1">
          <mxGeometry x="445" y="260" width="305" height="110" as="geometry" />
        </mxCell>
        <mxCell id="z27-uRXxiAsdTS0FbLUc-152" value="&lt;font style=&quot;font-size: 12px&quot;&gt;a77&lt;/font&gt;" style="text;html=1;resizable=0;autosize=1;align=center;verticalAlign=middle;points=[];fillColor=none;strokeColor=none;rounded=0;sketch=0;fontSize=18;fontColor=#000000;" vertex="1" parent="1">
          <mxGeometry x="660" y="430" width="40" height="30" as="geometry" />
        </mxCell>
        <mxCell id="z27-uRXxiAsdTS0FbLUc-156" value="" style="shape=singleArrow;direction=north;whiteSpace=wrap;html=1;fontSize=14;strokeWidth=1;" vertex="1" parent="1">
          <mxGeometry x="490" y="360" width="10" height="30" as="geometry" />
        </mxCell>
        <mxCell id="z27-uRXxiAsdTS0FbLUc-157" value="" style="shape=singleArrow;direction=north;whiteSpace=wrap;html=1;fontSize=14;strokeWidth=1;" vertex="1" parent="1">
          <mxGeometry x="600" y="360" width="10" height="30" as="geometry" />
        </mxCell>
        <mxCell id="z27-uRXxiAsdTS0FbLUc-158" value="" style="shape=singleArrow;direction=north;whiteSpace=wrap;html=1;fontSize=14;strokeWidth=1;" vertex="1" parent="1">
          <mxGeometry x="710" y="360" width="10" height="30" as="geometry" />
        </mxCell>
        <mxCell id="z27-uRXxiAsdTS0FbLUc-160" value="" style="shape=curlyBracket;whiteSpace=wrap;html=1;rounded=1;flipH=1;sketch=0;fontSize=12;fontColor=#000000;strokeColor=#000000;strokeWidth=1;fillColor=#FFFFFF;" vertex="1" parent="1">
          <mxGeometry x="750" y="305" width="20" height="165" as="geometry" />
        </mxCell>
        <mxCell id="z27-uRXxiAsdTS0FbLUc-161" value="x 3" style="text;html=1;resizable=0;autosize=1;align=center;verticalAlign=middle;points=[];fillColor=none;strokeColor=none;rounded=0;sketch=0;" vertex="1" parent="1">
          <mxGeometry x="765" y="377.5" width="30" height="20" as="geometry" />
        </mxCell>
        <mxCell id="z27-uRXxiAsdTS0FbLUc-162" value="" style="ellipse;whiteSpace=wrap;html=1;aspect=fixed;rounded=0;sketch=0;fontSize=18;fontColor=#000000;strokeColor=#000000;strokeWidth=1;fillColor=#FFFFFF;" vertex="1" parent="1">
          <mxGeometry x="490" y="280" width="10" height="10" as="geometry" />
        </mxCell>
        <mxCell id="z27-uRXxiAsdTS0FbLUc-168" value="" style="ellipse;whiteSpace=wrap;html=1;aspect=fixed;rounded=0;sketch=0;fontSize=18;fontColor=#000000;strokeColor=#000000;strokeWidth=1;fillColor=#FFFFFF;" vertex="1" parent="1">
          <mxGeometry x="600" y="280" width="10" height="10" as="geometry" />
        </mxCell>
        <mxCell id="z27-uRXxiAsdTS0FbLUc-169" value="" style="ellipse;whiteSpace=wrap;html=1;aspect=fixed;rounded=0;sketch=0;fontSize=18;fontColor=#000000;strokeColor=#000000;strokeWidth=1;fillColor=#FFFFFF;" vertex="1" parent="1">
          <mxGeometry x="710" y="280" width="10" height="10" as="geometry" />
        </mxCell>
        <mxCell id="z27-uRXxiAsdTS0FbLUc-170" value="" style="ellipse;whiteSpace=wrap;html=1;aspect=fixed;rounded=0;sketch=0;fontSize=18;fontColor=#000000;strokeColor=#000000;strokeWidth=1;fillColor=#FFFFFF;" vertex="1" parent="1">
          <mxGeometry x="490" y="330" width="10" height="10" as="geometry" />
        </mxCell>
        <mxCell id="z27-uRXxiAsdTS0FbLUc-172" value="" style="ellipse;whiteSpace=wrap;html=1;aspect=fixed;rounded=0;sketch=0;fontSize=18;fontColor=#000000;strokeColor=#000000;strokeWidth=1;fillColor=#FFFFFF;" vertex="1" parent="1">
          <mxGeometry x="600" y="330" width="10" height="10" as="geometry" />
        </mxCell>
        <mxCell id="z27-uRXxiAsdTS0FbLUc-173" value="" style="ellipse;whiteSpace=wrap;html=1;aspect=fixed;rounded=0;sketch=0;fontSize=18;fontColor=#000000;strokeColor=#000000;strokeWidth=1;fillColor=#FFFFFF;" vertex="1" parent="1">
          <mxGeometry x="710" y="330" width="10" height="10" as="geometry" />
        </mxCell>
        <mxCell id="z27-uRXxiAsdTS0FbLUc-174" value="" style="ellipse;whiteSpace=wrap;html=1;aspect=fixed;rounded=0;sketch=0;fontSize=18;fontColor=#000000;strokeColor=#000000;strokeWidth=1;fillColor=#FFFFFF;" vertex="1" parent="1">
          <mxGeometry x="510" y="280" width="10" height="10" as="geometry" />
        </mxCell>
        <mxCell id="z27-uRXxiAsdTS0FbLUc-175" value="" style="ellipse;whiteSpace=wrap;html=1;aspect=fixed;rounded=0;sketch=0;fontSize=18;fontColor=#000000;strokeColor=#000000;strokeWidth=1;fillColor=#FFFFFF;" vertex="1" parent="1">
          <mxGeometry x="470" y="280" width="10" height="10" as="geometry" />
        </mxCell>
        <mxCell id="z27-uRXxiAsdTS0FbLUc-179" value="" style="ellipse;whiteSpace=wrap;html=1;aspect=fixed;rounded=0;sketch=0;fontSize=18;fontColor=#000000;strokeColor=#000000;strokeWidth=1;fillColor=#FFFFFF;" vertex="1" parent="1">
          <mxGeometry x="510" y="330" width="10" height="10" as="geometry" />
        </mxCell>
        <mxCell id="z27-uRXxiAsdTS0FbLUc-180" value="" style="ellipse;whiteSpace=wrap;html=1;aspect=fixed;rounded=0;sketch=0;fontSize=18;fontColor=#000000;strokeColor=#000000;strokeWidth=1;fillColor=#FFFFFF;" vertex="1" parent="1">
          <mxGeometry x="470" y="330" width="10" height="10" as="geometry" />
        </mxCell>
        <mxCell id="z27-uRXxiAsdTS0FbLUc-181" value="" style="ellipse;whiteSpace=wrap;html=1;aspect=fixed;rounded=0;sketch=0;fontSize=18;fontColor=#000000;strokeColor=#000000;strokeWidth=1;fillColor=#FFFFFF;" vertex="1" parent="1">
          <mxGeometry x="620" y="280" width="10" height="10" as="geometry" />
        </mxCell>
        <mxCell id="z27-uRXxiAsdTS0FbLUc-184" value="" style="ellipse;whiteSpace=wrap;html=1;aspect=fixed;rounded=0;sketch=0;fontSize=18;fontColor=#000000;strokeColor=#000000;strokeWidth=1;fillColor=#FFFFFF;" vertex="1" parent="1">
          <mxGeometry x="580" y="280" width="10" height="10" as="geometry" />
        </mxCell>
        <mxCell id="z27-uRXxiAsdTS0FbLUc-185" value="" style="ellipse;whiteSpace=wrap;html=1;aspect=fixed;rounded=0;sketch=0;fontSize=18;fontColor=#000000;strokeColor=#000000;strokeWidth=1;fillColor=#FFFFFF;" vertex="1" parent="1">
          <mxGeometry x="620" y="330" width="10" height="10" as="geometry" />
        </mxCell>
        <mxCell id="z27-uRXxiAsdTS0FbLUc-186" value="" style="ellipse;whiteSpace=wrap;html=1;aspect=fixed;rounded=0;sketch=0;fontSize=18;fontColor=#000000;strokeColor=#000000;strokeWidth=1;fillColor=#FFFFFF;" vertex="1" parent="1">
          <mxGeometry x="580" y="330" width="10" height="10" as="geometry" />
        </mxCell>
        <mxCell id="z27-uRXxiAsdTS0FbLUc-188" value="" style="ellipse;whiteSpace=wrap;html=1;aspect=fixed;rounded=0;sketch=0;fontSize=18;fontColor=#000000;strokeColor=#000000;strokeWidth=1;fillColor=#FFFFFF;" vertex="1" parent="1">
          <mxGeometry x="690" y="280" width="10" height="10" as="geometry" />
        </mxCell>
        <mxCell id="z27-uRXxiAsdTS0FbLUc-189" value="" style="ellipse;whiteSpace=wrap;html=1;aspect=fixed;rounded=0;sketch=0;fontSize=18;fontColor=#000000;strokeColor=#000000;strokeWidth=1;fillColor=#FFFFFF;" vertex="1" parent="1">
          <mxGeometry x="730" y="280" width="10" height="10" as="geometry" />
        </mxCell>
        <mxCell id="z27-uRXxiAsdTS0FbLUc-190" value="" style="ellipse;whiteSpace=wrap;html=1;aspect=fixed;rounded=0;sketch=0;fontSize=18;fontColor=#000000;strokeColor=#000000;strokeWidth=1;fillColor=#FFFFFF;" vertex="1" parent="1">
          <mxGeometry x="730" y="330" width="10" height="10" as="geometry" />
        </mxCell>
        <mxCell id="z27-uRXxiAsdTS0FbLUc-191" value="" style="ellipse;whiteSpace=wrap;html=1;aspect=fixed;rounded=0;sketch=0;fontSize=18;fontColor=#000000;strokeColor=#000000;strokeWidth=1;fillColor=#FFFFFF;" vertex="1" parent="1">
          <mxGeometry x="690" y="330" width="10" height="10" as="geometry" />
        </mxCell>
        <mxCell id="z27-uRXxiAsdTS0FbLUc-192" value="&lt;font style=&quot;font-size: 18px&quot; color=&quot;#000066&quot;&gt;GAT&lt;/font&gt;" style="text;html=1;resizable=0;autosize=1;align=center;verticalAlign=middle;points=[];fillColor=none;strokeColor=none;rounded=0;sketch=0;rotation=90;" vertex="1" parent="1">
          <mxGeometry x="395" y="380" width="50" height="20" as="geometry" />
        </mxCell>
        <mxCell id="z27-uRXxiAsdTS0FbLUc-193" value="" style="endArrow=classic;html=1;rounded=1;sketch=0;fontSize=12;fontColor=#000066;endSize=2;elbow=vertical;dashed=1;" edge="1" parent="1">
          <mxGeometry width="50" height="50" relative="1" as="geometry">
            <mxPoint x="494.58" y="330" as="sourcePoint" />
            <mxPoint x="494.58" y="290" as="targetPoint" />
          </mxGeometry>
        </mxCell>
        <mxCell id="z27-uRXxiAsdTS0FbLUc-194" value="" style="endArrow=classic;html=1;rounded=1;dashed=1;sketch=0;fontSize=12;fontColor=#000066;endSize=2;elbow=vertical;exitX=0.5;exitY=0;exitDx=0;exitDy=0;" edge="1" parent="1" source="z27-uRXxiAsdTS0FbLUc-180">
          <mxGeometry width="50" height="50" relative="1" as="geometry">
            <mxPoint x="460" y="320" as="sourcePoint" />
            <mxPoint x="490" y="290" as="targetPoint" />
          </mxGeometry>
        </mxCell>
        <mxCell id="z27-uRXxiAsdTS0FbLUc-195" value="" style="endArrow=classic;html=1;rounded=1;dashed=1;sketch=0;fontSize=12;fontColor=#000066;endSize=2;elbow=vertical;exitX=0;exitY=0;exitDx=0;exitDy=0;" edge="1" parent="1" source="z27-uRXxiAsdTS0FbLUc-179">
          <mxGeometry width="50" height="50" relative="1" as="geometry">
            <mxPoint x="510" y="330" as="sourcePoint" />
            <mxPoint x="500" y="290" as="targetPoint" />
          </mxGeometry>
        </mxCell>
        <mxCell id="z27-uRXxiAsdTS0FbLUc-196" value="" style="endArrow=classic;html=1;rounded=1;dashed=1;sketch=0;fontSize=12;fontColor=#000066;endSize=2;elbow=vertical;exitX=0.5;exitY=0;exitDx=0;exitDy=0;" edge="1" parent="1" source="z27-uRXxiAsdTS0FbLUc-172">
          <mxGeometry width="50" height="50" relative="1" as="geometry">
            <mxPoint x="605" y="320" as="sourcePoint" />
            <mxPoint x="604.58" y="290" as="targetPoint" />
          </mxGeometry>
        </mxCell>
        <mxCell id="z27-uRXxiAsdTS0FbLUc-197" value="" style="endArrow=classic;html=1;rounded=1;dashed=1;sketch=0;fontSize=12;fontColor=#000066;endSize=2;elbow=vertical;exitX=0.5;exitY=0;exitDx=0;exitDy=0;" edge="1" parent="1">
          <mxGeometry width="50" height="50" relative="1" as="geometry">
            <mxPoint x="585" y="330" as="sourcePoint" />
            <mxPoint x="600" y="290" as="targetPoint" />
          </mxGeometry>
        </mxCell>
        <mxCell id="z27-uRXxiAsdTS0FbLUc-198" value="" style="endArrow=classic;html=1;rounded=1;dashed=1;sketch=0;fontSize=12;fontColor=#000066;endSize=2;elbow=vertical;exitX=0;exitY=0;exitDx=0;exitDy=0;" edge="1" parent="1">
          <mxGeometry width="50" height="50" relative="1" as="geometry">
            <mxPoint x="621.4644660940676" y="331.46446609406735" as="sourcePoint" />
            <mxPoint x="610" y="290" as="targetPoint" />
          </mxGeometry>
        </mxCell>
        <mxCell id="z27-uRXxiAsdTS0FbLUc-199" value="" style="endArrow=classic;html=1;rounded=1;dashed=1;sketch=0;fontSize=12;fontColor=#000066;endSize=2;elbow=vertical;exitX=0.5;exitY=0;exitDx=0;exitDy=0;" edge="1" parent="1">
          <mxGeometry width="50" height="50" relative="1" as="geometry">
            <mxPoint x="713.54" y="330" as="sourcePoint" />
            <mxPoint x="713.1199999999999" y="290" as="targetPoint" />
          </mxGeometry>
        </mxCell>
        <mxCell id="z27-uRXxiAsdTS0FbLUc-200" value="" style="endArrow=classic;html=1;rounded=1;dashed=1;sketch=0;fontSize=12;fontColor=#000066;endSize=2;elbow=vertical;exitX=0.5;exitY=0;exitDx=0;exitDy=0;" edge="1" parent="1">
          <mxGeometry width="50" height="50" relative="1" as="geometry">
            <mxPoint x="693.54" y="330" as="sourcePoint" />
            <mxPoint x="708.54" y="290" as="targetPoint" />
          </mxGeometry>
        </mxCell>
        <mxCell id="z27-uRXxiAsdTS0FbLUc-201" value="" style="endArrow=classic;html=1;rounded=1;dashed=1;sketch=0;fontSize=12;fontColor=#000066;endSize=2;elbow=vertical;exitX=0;exitY=0;exitDx=0;exitDy=0;" edge="1" parent="1">
          <mxGeometry width="50" height="50" relative="1" as="geometry">
            <mxPoint x="730.0044660940675" y="331.46446609406735" as="sourcePoint" />
            <mxPoint x="718.54" y="290" as="targetPoint" />
          </mxGeometry>
        </mxCell>
      </root>
    </mxGraphModel>
  </diagram>
</mxfile>
